<mxfile host="app.diagrams.net" modified="2023-03-19T13:44:49.512Z" agent="5.0 (X11; Linux x86_64) AppleWebKit/537.36 (KHTML, like Gecko) Chrome/111.0.0.0 Safari/537.36" etag="bfQISkFeZ9675eK9UjYB" version="21.0.8" type="github">
  <diagram name="Page-1" id="xLSJoEoM2J6qvqJeDGo1">
    <mxGraphModel dx="3225" dy="1707" grid="1" gridSize="10" guides="1" tooltips="1" connect="1" arrows="1" fold="1" page="0" pageScale="1" pageWidth="850" pageHeight="1100" background="none" math="0" shadow="0">
      <root>
        <mxCell id="0" />
        <mxCell id="1" parent="0" />
        <mxCell id="2jvgx198JMAjdNMDoXGk-2" value="&lt;font style=&quot;font-size: 24px;&quot;&gt;Data Engineering&lt;/font&gt;" style="rounded=0;whiteSpace=wrap;html=1;" vertex="1" parent="1">
          <mxGeometry x="-200" y="-40" width="240" height="80" as="geometry" />
        </mxCell>
        <mxCell id="2jvgx198JMAjdNMDoXGk-3" value="&lt;font style=&quot;font-size: 24px;&quot;&gt;Modeling&lt;/font&gt;" style="rounded=0;whiteSpace=wrap;html=1;" vertex="1" parent="1">
          <mxGeometry x="40" y="-40" width="240" height="80" as="geometry" />
        </mxCell>
        <mxCell id="2jvgx198JMAjdNMDoXGk-4" value="&lt;font style=&quot;font-size: 24px;&quot;&gt;Deployment&lt;/font&gt;" style="rounded=0;whiteSpace=wrap;html=1;" vertex="1" parent="1">
          <mxGeometry x="280" y="-40" width="240" height="80" as="geometry" />
        </mxCell>
        <mxCell id="2jvgx198JMAjdNMDoXGk-5" value="&lt;font style=&quot;font-size: 24px;&quot;&gt;Business Analysis&lt;/font&gt;" style="rounded=0;whiteSpace=wrap;html=1;" vertex="1" parent="1">
          <mxGeometry x="520" y="-40" width="240" height="80" as="geometry" />
        </mxCell>
        <mxCell id="2jvgx198JMAjdNMDoXGk-6" value="&lt;font style=&quot;font-size: 24px;&quot;&gt;AI Infrastructure&lt;/font&gt;" style="rounded=0;whiteSpace=wrap;html=1;" vertex="1" parent="1">
          <mxGeometry x="840" y="-40" width="240" height="80" as="geometry" />
        </mxCell>
        <mxCell id="2jvgx198JMAjdNMDoXGk-7" value="&lt;font style=&quot;font-size: 24px;&quot;&gt;Data Scientist&lt;/font&gt;" style="rounded=0;whiteSpace=wrap;html=1;fillColor=#D4E1F5;shadow=0;" vertex="1" parent="1">
          <mxGeometry x="-480" y="80" width="240" height="80" as="geometry" />
        </mxCell>
        <mxCell id="2jvgx198JMAjdNMDoXGk-8" value="&lt;font style=&quot;font-size: 24px;&quot;&gt;Machine learning Engineer&lt;/font&gt;" style="rounded=0;whiteSpace=wrap;html=1;fillColor=#E5CCFF;" vertex="1" parent="1">
          <mxGeometry x="-480" y="200" width="240" height="80" as="geometry" />
        </mxCell>
        <mxCell id="2jvgx198JMAjdNMDoXGk-9" value="&lt;font style=&quot;font-size: 24px;&quot;&gt;Data Analyst&lt;/font&gt;" style="rounded=0;whiteSpace=wrap;html=1;fillColor=#FFFFCC;" vertex="1" parent="1">
          <mxGeometry x="-480" y="320" width="240" height="80" as="geometry" />
        </mxCell>
        <mxCell id="2jvgx198JMAjdNMDoXGk-10" value="&lt;font style=&quot;font-size: 24px;&quot;&gt;Software Engineer - Machine learning&lt;/font&gt;" style="rounded=0;whiteSpace=wrap;html=1;fillColor=#CCFFFF;" vertex="1" parent="1">
          <mxGeometry x="-480" y="440" width="240" height="80" as="geometry" />
        </mxCell>
        <mxCell id="2jvgx198JMAjdNMDoXGk-11" value="&lt;font style=&quot;font-size: 24px;&quot;&gt;Machine learning Researcher&lt;/font&gt;" style="rounded=0;whiteSpace=wrap;html=1;fillColor=#FFE6CC;" vertex="1" parent="1">
          <mxGeometry x="-480" y="560" width="240" height="80" as="geometry" />
        </mxCell>
        <mxCell id="2jvgx198JMAjdNMDoXGk-12" value="&lt;font style=&quot;font-size: 24px;&quot;&gt;Software Engineer&lt;/font&gt;" style="rounded=0;whiteSpace=wrap;html=1;fillColor=#E6FFCC;" vertex="1" parent="1">
          <mxGeometry x="-480" y="680" width="240" height="80" as="geometry" />
        </mxCell>
        <mxCell id="2jvgx198JMAjdNMDoXGk-13" value="" style="rounded=0;whiteSpace=wrap;html=1;fillColor=#D4E1F5;" vertex="1" parent="1">
          <mxGeometry x="-200" y="80" width="480" height="80" as="geometry" />
        </mxCell>
        <mxCell id="2jvgx198JMAjdNMDoXGk-14" value="" style="rounded=0;whiteSpace=wrap;html=1;fillColor=#E5CCFF;" vertex="1" parent="1">
          <mxGeometry x="-200" y="200" width="720" height="80" as="geometry" />
        </mxCell>
        <mxCell id="2jvgx198JMAjdNMDoXGk-15" value="" style="rounded=0;whiteSpace=wrap;html=1;fillColor=#FFFFCC;" vertex="1" parent="1">
          <mxGeometry x="-200" y="320" width="240" height="80" as="geometry" />
        </mxCell>
        <mxCell id="2jvgx198JMAjdNMDoXGk-16" value="" style="rounded=0;whiteSpace=wrap;html=1;fillColor=#FFFFCC;" vertex="1" parent="1">
          <mxGeometry x="520" y="320" width="240" height="80" as="geometry" />
        </mxCell>
        <mxCell id="2jvgx198JMAjdNMDoXGk-17" value="" style="rounded=0;whiteSpace=wrap;html=1;fillColor=#CCFFFF;" vertex="1" parent="1">
          <mxGeometry x="-200" y="440" width="280" height="80" as="geometry" />
        </mxCell>
        <mxCell id="2jvgx198JMAjdNMDoXGk-18" value="" style="rounded=0;whiteSpace=wrap;html=1;fillColor=#CCFFFF;" vertex="1" parent="1">
          <mxGeometry x="280" y="440" width="240" height="80" as="geometry" />
        </mxCell>
        <mxCell id="2jvgx198JMAjdNMDoXGk-19" value="" style="rounded=0;whiteSpace=wrap;html=1;fillColor=#CCFFFF;" vertex="1" parent="1">
          <mxGeometry x="120" y="440" width="40" height="80" as="geometry" />
        </mxCell>
        <mxCell id="2jvgx198JMAjdNMDoXGk-20" value="" style="rounded=0;whiteSpace=wrap;html=1;fillColor=#CCFFFF;" vertex="1" parent="1">
          <mxGeometry x="200" y="440" width="40" height="80" as="geometry" />
        </mxCell>
        <mxCell id="2jvgx198JMAjdNMDoXGk-22" value="" style="rounded=0;whiteSpace=wrap;html=1;fillColor=#CCFFFF;" vertex="1" parent="1">
          <mxGeometry x="920" y="440" width="160" height="80" as="geometry" />
        </mxCell>
        <mxCell id="2jvgx198JMAjdNMDoXGk-23" value="" style="rounded=0;whiteSpace=wrap;html=1;fillColor=#FFE6CC;" vertex="1" parent="1">
          <mxGeometry x="-200" y="560" width="480" height="80" as="geometry" />
        </mxCell>
        <mxCell id="2jvgx198JMAjdNMDoXGk-24" value="" style="rounded=0;whiteSpace=wrap;html=1;fillColor=#FFE6CC;" vertex="1" parent="1">
          <mxGeometry x="920" y="560" width="160" height="80" as="geometry" />
        </mxCell>
        <mxCell id="2jvgx198JMAjdNMDoXGk-25" value="" style="rounded=0;whiteSpace=wrap;html=1;fillColor=#E6FFCC;" vertex="1" parent="1">
          <mxGeometry x="920" y="680" width="160" height="80" as="geometry" />
        </mxCell>
        <mxCell id="2jvgx198JMAjdNMDoXGk-26" value="" style="rounded=0;whiteSpace=wrap;html=1;fillColor=#E6FFCC;" vertex="1" parent="1">
          <mxGeometry x="-200" y="680" width="240" height="80" as="geometry" />
        </mxCell>
        <mxCell id="2jvgx198JMAjdNMDoXGk-27" value="" style="endArrow=none;dashed=1;html=1;dashPattern=1 3;strokeWidth=2;rounded=0;exitX=0;exitY=1;exitDx=0;exitDy=0;entryX=1;entryY=1;entryDx=0;entryDy=0;" edge="1" parent="1" source="2jvgx198JMAjdNMDoXGk-3" target="2jvgx198JMAjdNMDoXGk-26">
          <mxGeometry width="50" height="50" relative="1" as="geometry">
            <mxPoint x="60" y="110" as="sourcePoint" />
            <mxPoint x="220" y="510" as="targetPoint" />
          </mxGeometry>
        </mxCell>
        <mxCell id="2jvgx198JMAjdNMDoXGk-29" value="" style="endArrow=none;dashed=1;html=1;dashPattern=1 3;strokeWidth=2;rounded=0;exitX=0;exitY=1;exitDx=0;exitDy=0;entryX=0;entryY=1;entryDx=0;entryDy=0;" edge="1" parent="1" source="2jvgx198JMAjdNMDoXGk-26" target="2jvgx198JMAjdNMDoXGk-2">
          <mxGeometry width="50" height="50" relative="1" as="geometry">
            <mxPoint x="320" y="650" as="sourcePoint" />
            <mxPoint x="-200" y="170" as="targetPoint" />
          </mxGeometry>
        </mxCell>
        <mxCell id="2jvgx198JMAjdNMDoXGk-31" value="" style="endArrow=none;dashed=1;html=1;dashPattern=1 3;strokeWidth=2;rounded=0;entryX=1;entryY=1;entryDx=0;entryDy=0;" edge="1" parent="1" target="2jvgx198JMAjdNMDoXGk-3">
          <mxGeometry width="50" height="50" relative="1" as="geometry">
            <mxPoint x="280" y="760" as="sourcePoint" />
            <mxPoint x="120" y="390" as="targetPoint" />
          </mxGeometry>
        </mxCell>
        <mxCell id="2jvgx198JMAjdNMDoXGk-32" value="" style="endArrow=none;dashed=1;html=1;dashPattern=1 3;strokeWidth=2;rounded=0;entryX=0;entryY=1;entryDx=0;entryDy=0;" edge="1" parent="1" target="2jvgx198JMAjdNMDoXGk-5">
          <mxGeometry width="50" height="50" relative="1" as="geometry">
            <mxPoint x="520" y="760" as="sourcePoint" />
            <mxPoint x="290" y="50" as="targetPoint" />
          </mxGeometry>
        </mxCell>
        <mxCell id="2jvgx198JMAjdNMDoXGk-33" value="" style="endArrow=none;dashed=1;html=1;dashPattern=1 3;strokeWidth=2;rounded=0;entryX=1;entryY=1;entryDx=0;entryDy=0;" edge="1" parent="1" target="2jvgx198JMAjdNMDoXGk-5">
          <mxGeometry width="50" height="50" relative="1" as="geometry">
            <mxPoint x="760" y="760" as="sourcePoint" />
            <mxPoint x="530" y="50" as="targetPoint" />
          </mxGeometry>
        </mxCell>
        <mxCell id="2jvgx198JMAjdNMDoXGk-34" value="" style="endArrow=none;html=1;rounded=0;" edge="1" parent="1">
          <mxGeometry width="50" height="50" relative="1" as="geometry">
            <mxPoint x="800" y="760" as="sourcePoint" />
            <mxPoint x="800" y="-40" as="targetPoint" />
          </mxGeometry>
        </mxCell>
        <mxCell id="2jvgx198JMAjdNMDoXGk-35" value="" style="endArrow=none;dashed=1;html=1;dashPattern=1 3;strokeWidth=2;rounded=0;entryX=1;entryY=1;entryDx=0;entryDy=0;" edge="1" parent="1">
          <mxGeometry width="50" height="50" relative="1" as="geometry">
            <mxPoint x="840" y="760" as="sourcePoint" />
            <mxPoint x="840" y="40" as="targetPoint" />
          </mxGeometry>
        </mxCell>
        <mxCell id="2jvgx198JMAjdNMDoXGk-36" value="" style="endArrow=none;dashed=1;html=1;dashPattern=1 3;strokeWidth=2;rounded=0;entryX=1;entryY=1;entryDx=0;entryDy=0;" edge="1" parent="1">
          <mxGeometry width="50" height="50" relative="1" as="geometry">
            <mxPoint x="1078.75" y="760" as="sourcePoint" />
            <mxPoint x="1078.75" y="40" as="targetPoint" />
          </mxGeometry>
        </mxCell>
      </root>
    </mxGraphModel>
  </diagram>
</mxfile>
